<?xml version="1.0" standalone="no"?>
<!DOCTYPE svg PUBLIC "-//W3C//DTD SVG 20010904//EN"
 "http://www.w3.org/TR/2001/REC-SVG-20010904/DTD/svg10.dtd">
<svg version="1.0" xmlns="http://www.w3.org/2000/svg"
 width="2400.000000pt" height="2400.000000pt" viewBox="0 0 2400.000000 2400.000000"
 preserveAspectRatio="xMidYMid meet">

<g transform="translate(0.000000,2400.000000) scale(0.100000,-0.100000)"
fill="#000000" stroke="none">
<path d="M6690 12000 l0 -3300 115 0 115 0 0 3300 0 3300 -115 0 -115 0 0
-3300z"/>
<path d="M3155 14889 c-71 -5 -157 -12 -190 -16 l-60 -8 -3 -336 -2 -336 -113
-17 c-61 -10 -161 -28 -222 -42 -60 -13 -113 -24 -117 -24 -5 0 -8 149 -8 330
0 226 -3 330 -11 330 -5 0 -76 -22 -157 -49 -164 -55 -363 -139 -494 -209
l-88 -47 0 -692 0 -691 159 -154 159 -153 -47 -778 -47 -777 -127 -128 -127
-127 0 -450 0 -451 43 -47 42 -47 82 39 c103 50 262 105 384 132 137 30 424
37 578 15 231 -34 432 -99 679 -216 l142 -69 0 573 0 573 -80 101 -80 100 0
805 0 806 160 247 c88 136 160 243 160 237 0 -5 -29 -113 -64 -239 -36 -126
-64 -230 -63 -230 1 -1 38 2 82 6 295 32 664 -11 976 -112 l96 -31 162 148
161 149 0 413 0 413 -37 16 c-359 154 -703 249 -1085 299 l-48 6 0 354 0 354
-32 5 c-165 28 -553 40 -763 25z m-475 -2284 c60 -31 60 -32 80 -579 10 -275
21 -545 23 -598 l5 -98 -164 0 -164 0 0 78 c0 201 32 1091 40 1124 21 76 107
111 180 73z"/>
<path d="M4430 14478 l0 -284 78 -18 c110 -26 347 -106 487 -165 65 -28 121
-51 122 -51 2 0 3 119 3 263 l0 264 -122 61 c-187 92 -352 155 -550 209 -17 4
-18 -14 -18 -279z"/>
<path d="M13495 14211 c-56 -23 -82 -109 -50 -170 31 -60 136 -79 201 -36 63
41 66 133 8 185 -29 25 -43 30 -87 29 -29 0 -61 -4 -72 -8z"/>
<path d="M17174 14201 c-50 -31 -66 -97 -38 -156 28 -59 118 -83 189 -49 82
38 85 168 5 209 -41 21 -118 19 -156 -4z"/>
<path d="M20772 14201 c-67 -23 -120 -66 -152 -122 -19 -34 -25 -62 -28 -131
l-4 -88 -54 0 -54 0 0 -84 0 -85 53 -3 52 -3 3 -392 2 -393 120 0 120 0 2 393
3 392 83 3 82 3 0 84 0 85 -85 0 -85 0 6 58 c3 31 14 68 23 82 21 30 70 49
129 49 l42 1 0 85 0 85 -102 0 c-73 -1 -118 -6 -156 -19z"/>
<path d="M9140 13550 l0 -650 125 0 125 0 0 389 0 389 45 17 c59 23 165 17
196 -10 47 -42 49 -62 49 -435 l0 -350 126 0 125 0 -3 383 c-3 378 -3 383 -26
429 -46 92 -138 148 -267 162 -55 7 -135 -4 -222 -30 l-23 -6 0 181 0 181
-125 0 -125 0 0 -650z"/>
<path d="M8242 14023 l3 -98 123 -3 122 -3 0 -509 0 -510 130 0 130 0 0 510 0
510 130 0 130 0 0 100 0 100 -385 0 -386 0 3 -97z"/>
<path d="M11412 13648 c3 -466 3 -474 26 -529 66 -165 251 -254 474 -229 157
18 264 83 320 197 l33 68 3 482 3 483 -131 0 -130 0 0 -457 c0 -503 0 -501
-62 -546 -55 -41 -170 -37 -216 6 -58 54 -57 43 -60 540 l-3 457 -130 0 -130
0 3 -472z"/>
<path d="M17850 14110 c-14 -5 -62 -19 -107 -31 l-83 -21 0 -99 0 -99 -55 0
-55 0 0 -84 0 -85 53 -3 52 -3 5 -320 c6 -354 5 -352 74 -412 19 -17 52 -37
73 -44 41 -15 220 -19 266 -6 26 7 27 9 27 82 l0 75 -60 0 c-32 0 -70 5 -83
11 -49 22 -52 41 -52 338 l0 276 78 3 77 3 0 84 0 85 -80 0 -80 0 0 130 c0
138 0 137 -50 120z"/>
<path d="M10392 13869 c-164 -27 -280 -149 -323 -337 -16 -70 -12 -247 6 -317
64 -241 244 -351 531 -324 83 7 200 37 233 58 21 14 -36 175 -58 165 -72 -31
-153 -45 -243 -42 -89 3 -100 5 -139 33 -48 34 -85 97 -95 163 l-7 42 297 0
296 0 0 93 c-1 265 -119 432 -331 467 -73 11 -93 11 -167 -1z m151 -163 c67
-27 107 -102 107 -198 l0 -48 -181 0 -181 0 7 58 c12 99 48 160 110 188 39 17
97 17 138 0z"/>
<path d="M12755 13874 c-72 -7 -159 -25 -227 -47 l-68 -21 0 -453 0 -453 125
0 125 0 0 394 0 394 31 11 c45 15 143 14 184 -3 59 -25 60 -26 65 -426 l5
-365 123 -3 122 -3 0 380 0 379 -28 53 c-35 67 -93 112 -177 138 -64 20 -204
32 -280 25z"/>
<path d="M15084 13869 c-158 -26 -274 -141 -319 -314 -20 -78 -20 -262 0 -340
62 -238 247 -351 531 -324 83 7 200 37 233 58 21 14 -36 175 -58 165 -73 -31
-152 -45 -243 -42 -89 3 -101 6 -140 33 -47 34 -84 97 -94 163 l-7 42 297 0
296 0 0 93 c-1 266 -118 432 -330 466 -73 12 -94 12 -166 0z m149 -163 c67
-27 107 -102 107 -198 l0 -48 -181 0 -181 0 7 58 c12 99 48 160 110 188 39 17
97 17 138 0z"/>
<path d="M16583 13870 c-58 -12 -122 -42 -160 -74 -85 -72 -111 -230 -55 -337
34 -66 100 -118 196 -156 93 -37 146 -87 146 -137 0 -47 -13 -72 -48 -90 -65
-33 -162 -28 -255 14 l-42 19 -28 -72 c-15 -40 -25 -77 -23 -83 7 -18 125 -54
211 -63 292 -33 481 146 409 388 -25 85 -78 134 -221 203 -123 59 -153 85
-153 133 0 29 28 71 55 83 36 16 132 14 180 -4 22 -8 47 -18 56 -20 11 -4 24
13 47 63 30 63 31 69 15 81 -54 40 -245 70 -330 52z"/>
<path d="M19860 13869 c-159 -27 -273 -143 -315 -321 -19 -81 -19 -255 0 -336
43 -182 165 -300 332 -321 147 -18 274 21 356 108 89 95 127 208 127 381 0
206 -57 341 -179 428 -77 55 -209 80 -321 61z m156 -178 c72 -44 108 -220 86
-412 -19 -161 -65 -229 -157 -229 -92 0 -138 66 -157 228 -9 79 -9 125 0 204
19 162 65 228 157 228 22 0 54 -9 71 -19z"/>
<path d="M15935 13855 c-38 -7 -96 -20 -127 -30 l-58 -19 0 -453 0 -453 125 0
125 0 0 395 0 394 36 7 c19 4 69 4 110 2 83 -6 75 -13 97 93 l14 67 -36 6
c-59 10 -211 5 -286 -9z"/>
<path d="M13430 13380 l0 -480 125 0 125 0 0 480 0 480 -125 0 -125 0 0 -480z"/>
<path d="M13835 13793 c12 -37 84 -246 158 -463 75 -217 138 -403 142 -412 6
-16 22 -18 125 -18 l118 0 160 480 160 480 -123 0 -123 0 -16 -47 c-27 -85
-153 -537 -160 -577 -4 -21 -9 -36 -12 -33 -3 2 -44 150 -93 328 l-88 324
-136 3 -136 3 24 -68z"/>
<path d="M17130 13380 l0 -481 123 3 122 3 3 478 2 477 -125 0 -125 0 0 -480z"/>
<path d="M18252 13478 c3 -373 4 -384 25 -424 31 -58 97 -112 163 -131 72 -22
229 -22 289 1 24 9 45 16 47 16 2 0 4 -28 4 -62 -1 -87 -26 -140 -82 -170 -71
-37 -228 -30 -350 17 -9 4 -21 -17 -38 -65 -28 -81 -29 -80 56 -105 162 -49
340 -46 461 6 65 28 136 100 169 172 l29 62 3 533 3 532 -126 0 -125 0 0 -383
0 -384 -39 -11 c-54 -17 -137 -15 -175 3 -65 31 -66 35 -66 424 l0 351 -125 0
-126 0 3 -382z"/>
<path d="M4118 12605 c-60 -34 -60 -33 -79 -605 -10 -289 -18 -558 -18 -597
l-1 -73 160 0 160 0 0 33 c0 143 -42 1140 -50 1168 -5 19 -21 46 -34 58 -31
30 -100 37 -138 16z"/>
<path d="M13969 12257 c-91 -34 -133 -94 -133 -187 1 -118 82 -190 212 -190
95 0 167 42 198 117 27 62 11 157 -34 206 -48 53 -172 81 -243 54z"/>
<path d="M17690 11110 l0 -1110 185 0 185 0 2 678 3 677 65 32 c156 78 367 60
438 -37 52 -70 52 -67 52 -731 l0 -619 190 0 190 0 0 610 c0 518 -2 623 -16
688 -70 342 -433 469 -901 317 l-23 -7 0 306 0 306 -185 0 -185 0 0 -1110z"/>
<path d="M8420 11060 l0 -1060 181 0 180 0 -3 798 -3 798 48 -101 c26 -55 233
-414 460 -797 l412 -697 163 -1 162 0 0 1060 0 1060 -181 0 -180 0 3 -743 3
-742 -57 115 c-31 63 -222 396 -425 740 l-370 625 -196 3 -197 2 0 -1060z"/>
<path d="M12280 12090 c-14 -5 -94 -28 -177 -50 l-153 -42 -2 -167 -3 -166
-92 -3 -93 -3 0 -119 0 -120 95 0 95 0 0 -543 c0 -587 2 -612 55 -703 75 -128
200 -187 395 -188 58 0 131 3 163 8 l57 7 0 119 0 118 -100 4 c-111 4 -138 17
-175 79 -19 33 -20 55 -23 566 l-3 532 133 3 133 3 3 118 3 117 -136 0 -135 0
0 220 c0 121 -3 220 -7 219 -5 0 -19 -4 -33 -9z"/>
<path d="M13108 12047 l-178 -51 0 -168 0 -168 -95 0 -96 0 3 -117 3 -118 93
-3 92 -3 0 -527 c0 -415 3 -541 14 -593 37 -174 143 -272 330 -306 77 -14 203
-12 294 4 l32 5 0 119 0 119 -83 0 c-105 0 -160 25 -191 85 -20 39 -21 58 -24
568 l-3 527 136 0 135 0 0 120 0 119 -132 3 -133 3 -3 218 c-1 119 -6 216 -10
216 -4 -1 -87 -24 -184 -52z"/>
<path d="M10781 11675 c-240 -53 -421 -243 -491 -520 -49 -192 -49 -457 0
-650 65 -260 238 -447 471 -511 89 -25 299 -25 389 0 147 40 304 157 375 279
131 226 169 582 94 882 -25 101 -95 244 -152 313 -85 103 -212 179 -343 207
-86 18 -258 18 -343 0z m308 -235 c77 -39 124 -114 162 -257 17 -64 22 -118
26 -298 7 -310 -17 -452 -96 -577 -45 -70 -99 -102 -183 -106 -199 -12 -294
135 -318 486 -18 258 12 507 74 630 30 60 103 126 154 141 50 14 135 5 181
-19z"/>
<path d="M14965 11684 c-148 -23 -272 -55 -432 -114 l-33 -12 0 -779 0 -779
190 0 190 0 2 707 3 707 50 20 c71 27 243 34 316 13 65 -20 122 -64 152 -120
22 -42 22 -42 25 -684 l3 -643 190 0 190 0 -3 643 c-4 629 -4 643 -26 707 -53
159 -163 256 -354 311 -60 17 -106 21 -253 24 -99 2 -193 1 -210 -1z"/>
<path d="M16625 11670 c-113 -24 -250 -91 -327 -160 -102 -91 -186 -242 -223
-404 -39 -167 -36 -428 5 -594 67 -266 250 -457 485 -507 127 -27 305 -16 423
25 l55 19 -6 -107 c-6 -128 -24 -184 -79 -247 -71 -81 -165 -115 -321 -115
-109 0 -222 20 -312 55 -33 13 -66 25 -73 27 -8 2 -32 -41 -63 -111 -41 -90
-48 -115 -38 -122 28 -17 178 -68 250 -84 115 -26 394 -32 500 -11 99 20 223
76 296 135 104 84 180 232 203 396 6 41 10 414 10 891 l0 821 -58 26 c-71 30
-202 64 -302 77 -124 16 -324 11 -425 -10z m363 -225 l52 -16 0 -570 0 -570
-42 -19 c-62 -27 -163 -43 -222 -35 -177 24 -274 129 -318 344 -17 82 -19 122
-15 276 6 206 21 287 72 391 52 106 128 175 225 205 45 13 194 10 248 -6z"/>
<path d="M19655 11674 c-162 -29 -343 -91 -337 -116 2 -7 19 -57 39 -111 28
-76 40 -97 52 -93 9 3 53 18 98 35 230 84 460 79 561 -13 46 -41 65 -94 70
-198 l5 -98 -49 8 c-27 4 -123 7 -214 7 -144 -1 -175 -4 -240 -24 -224 -69
-364 -204 -414 -398 -20 -75 -21 -239 -2 -310 41 -153 135 -266 278 -333 125
-58 213 -74 408 -73 104 0 200 6 260 16 105 18 256 59 301 82 l29 16 0 567 c0
630 -2 651 -65 778 -64 131 -196 224 -367 258 -96 20 -303 20 -413 0z m422
-795 l63 -11 -2 -331 -3 -332 -65 -18 c-89 -24 -215 -24 -281 -1 -121 44 -197
158 -207 311 -11 187 68 324 218 376 54 19 186 22 277 6z"/>
<path d="M21185 11675 c-114 -18 -206 -42 -312 -83 l-93 -35 0 -778 0 -779
190 0 190 0 0 706 0 705 48 22 c40 19 65 22 172 22 118 0 128 -2 175 -28 54
-29 90 -73 105 -128 6 -20 10 -286 10 -666 l0 -633 190 0 191 0 -4 648 c-3
356 -8 663 -11 682 -7 33 -5 36 41 67 61 41 119 55 215 55 126 0 205 -46 250
-146 l23 -51 3 -627 3 -628 184 0 185 0 0 618 c0 677 -2 700 -60 818 -57 117
-183 207 -336 239 -90 19 -261 19 -361 0 -87 -17 -183 -52 -244 -90 -21 -14
-41 -25 -44 -25 -4 0 -21 11 -39 25 -50 38 -144 73 -242 90 -104 18 -316 18
-429 0z"/>
<path d="M13860 10830 l0 -830 190 0 190 0 0 830 0 830 -190 0 -190 0 0 -830z"/>
<path d="M2170 9970 c-361 -45 -664 -191 -901 -437 -67 -69 -201 -235 -195
-241 3 -2 32 12 65 32 106 65 302 153 442 200 354 118 718 143 1054 72 169
-36 276 -76 545 -206 353 -169 476 -214 705 -257 141 -26 440 -24 572 5 201
44 384 124 546 239 83 59 295 262 336 321 21 30 16 28 -56 -24 -43 -31 -132
-83 -198 -115 -205 -100 -382 -139 -630 -139 -322 0 -509 51 -925 250 -304
146 -426 192 -655 249 -192 48 -532 72 -705 51z"/>
</g>
</svg>
